<svg xmlns="http://www.w3.org/2000/svg" xmlns:xlink="http://www.w3.org/1999/xlink" id="processonSvg1000" viewBox="18.0 102.0 1048.0 476.0" width="1048.0" height="476.0"><defs id="ProcessOnDefs1001"><marker id="ProcessOnMarker1064" markerUnits="userSpaceOnUse" orient="auto" markerWidth="16.23606797749979" markerHeight="10.550836550532098" viewBox="-1.0 -1.3763819204711736 16.23606797749979 10.550836550532098" refX="-1.0" refY="3.8990363547948754"><path id="ProcessOnPath1065" d="M12.0 3.8990363547948754L0.0 7.798072709589751V0.0Z" stroke="#323232" stroke-width="2.0" fill="#323232" transform="matrix(1.0,0.0,0.0,1.0,0.0,0.0)"/></marker><marker id="ProcessOnMarker1068" markerUnits="userSpaceOnUse" orient="auto" markerWidth="16.23606797749979" markerHeight="10.550836550532098" viewBox="-1.0 -1.3763819204711736 16.23606797749979 10.550836550532098" refX="-1.0" refY="3.8990363547948754"><path id="ProcessOnPath1069" d="M12.0 3.8990363547948754L0.0 7.798072709589751V0.0Z" stroke="#323232" stroke-width="2.0" fill="#323232" transform="matrix(1.0,0.0,0.0,1.0,0.0,0.0)"/></marker><marker id="ProcessOnMarker1072" markerUnits="userSpaceOnUse" orient="auto" markerWidth="16.23606797749979" markerHeight="10.550836550532098" viewBox="-1.0 -1.3763819204711736 16.23606797749979 10.550836550532098" refX="-1.0" refY="3.8990363547948754"><path id="ProcessOnPath1073" d="M12.0 3.8990363547948754L0.0 7.798072709589751V0.0Z" stroke="#323232" stroke-width="2.0" fill="#323232" transform="matrix(1.0,0.0,0.0,1.0,0.0,0.0)"/></marker><marker id="ProcessOnMarker1076" markerUnits="userSpaceOnUse" orient="auto" markerWidth="16.23606797749979" markerHeight="10.550836550532098" viewBox="-1.0 -1.3763819204711736 16.23606797749979 10.550836550532098" refX="-1.0" refY="3.8990363547948754"><path id="ProcessOnPath1077" d="M12.0 3.8990363547948754L0.0 7.798072709589751V0.0Z" stroke="#323232" stroke-width="2.0" fill="#323232" transform="matrix(1.0,0.0,0.0,1.0,0.0,0.0)"/></marker><marker id="ProcessOnMarker1080" markerUnits="userSpaceOnUse" orient="auto" markerWidth="16.23606797749979" markerHeight="10.550836550532098" viewBox="-1.0 -1.3763819204711736 16.23606797749979 10.550836550532098" refX="-1.0" refY="3.8990363547948754"><path id="ProcessOnPath1081" d="M12.0 3.8990363547948754L0.0 7.798072709589751V0.0Z" stroke="#323232" stroke-width="2.0" fill="#323232" transform="matrix(1.0,0.0,0.0,1.0,0.0,0.0)"/></marker></defs><g id="ProcessOnG1002"><path id="ProcessOnPath1003" d="M18.0 102.0H1066.0V578.0H18.0V102.0Z" fill="#ffffff"/><g id="ProcessOnG1004"><g id="ProcessOnG1005" transform="matrix(1.0,0.0,0.0,1.0,403.0,122.0)" opacity="1.0"><path id="ProcessOnPath1006" d="M0.0 4.0Q0.0 0.0 4.0 0.0L591.0 0.0Q595.0 0.0 595.0 4.0L595.0 432.0Q595.0 436.0 591.0 436.0L4.0 436.0Q0.0 436.0 0.0 432.0Z" stroke="#ff6666" stroke-width="2.0" stroke-dasharray="10.0 4.0" opacity="1.0" fill="#ffffff"/></g><g id="ProcessOnG1007" transform="matrix(1.0,0.0,0.0,1.0,38.0,122.0)" opacity="1.0"><path id="ProcessOnPath1008" d="M0.0 4.0Q0.0 0.0 4.0 0.0L310.0 0.0Q314.0 0.0 314.0 4.0L314.0 432.0Q314.0 436.0 310.0 436.0L4.0 436.0Q0.0 436.0 0.0 432.0Z" stroke="#ff6666" stroke-width="2.0" stroke-dasharray="10.0 4.0" opacity="1.0" fill="#ffffff"/></g><g id="ProcessOnG1009" transform="matrix(1.0,0.0,0.0,1.0,268.0,254.0)" opacity="1.0"><path id="ProcessOnPath1010" d="M0.0 0.0L110.0 0.0L110.0 196.0L0.0 196.0Z" stroke="#323232" stroke-width="2.0" stroke-dasharray="none" opacity="1.0" fill="#ffffff"/></g><g id="ProcessOnG1011" transform="matrix(1.0,0.0,0.0,1.0,273.5,263.0)" opacity="1.0"><path id="ProcessOnPath1012" d="M0.0 4.0Q0.0 0.0 4.0 0.0L95.0 0.0Q99.0 0.0 99.0 4.0L99.0 39.0Q99.0 43.0 95.0 43.0L4.0 43.0Q0.0 43.0 0.0 39.0Z" stroke="#323232" stroke-width="2.0" stroke-dasharray="none" opacity="1.0" fill="#ffffff"/><g id="ProcessOnG1013" transform="matrix(1.0,0.0,0.0,1.0,10.0,13.375)"><text id="ProcessOnText1014" fill="#000000" font-size="13" x="38.5" y="13.325" font-family="微软雅黑" font-weight="normal" font-style="normal" text-decoration="none" family="微软雅黑" text-anchor="middle" size="13">FixedBuffer</text></g></g><g id="ProcessOnG1015" transform="matrix(1.0,0.0,0.0,1.0,273.5,312.0)" opacity="1.0"><path id="ProcessOnPath1016" d="M0.0 4.0Q0.0 0.0 4.0 0.0L95.0 0.0Q99.0 0.0 99.0 4.0L99.0 39.0Q99.0 43.0 95.0 43.0L4.0 43.0Q0.0 43.0 0.0 39.0Z" stroke="#323232" stroke-width="2.0" stroke-dasharray="none" opacity="1.0" fill="#ffffff"/><g id="ProcessOnG1017" transform="matrix(1.0,0.0,0.0,1.0,10.0,13.375)"><text id="ProcessOnText1018" fill="#000000" font-size="13" x="38.5" y="13.325" font-family="微软雅黑" font-weight="normal" font-style="normal" text-decoration="none" family="微软雅黑" text-anchor="middle" size="13">FixedBuffer</text></g></g><g id="ProcessOnG1019" transform="matrix(1.0,0.0,0.0,1.0,243.0,375.0)" opacity="1.0"><path id="ProcessOnPath1020" d="M0.0 0.0L160.0 0.0L160.0 40.0L0.0 40.0Z" stroke="none" stroke-width="0.0" stroke-dasharray="none" opacity="1.0" fill="none"/><g id="ProcessOnG1021" transform="matrix(1.0,0.0,0.0,1.0,0.0,-12.5)"><text id="ProcessOnText1022" fill="#000000" font-size="13" x="79.0" y="13.325" font-family="微软雅黑" font-weight="normal" font-style="normal" text-decoration="none" family="微软雅黑" text-anchor="middle" size="13">……</text><text id="ProcessOnText1023" fill="#000000" font-size="13" x="79.0" y="29.575" font-family="微软雅黑" font-weight="normal" font-style="normal" text-decoration="none" family="微软雅黑" text-anchor="middle" size="13"></text><text id="ProcessOnText1024" fill="#000000" font-size="13" x="79.0" y="45.825" font-family="微软雅黑" font-weight="normal" font-style="normal" text-decoration="none" family="微软雅黑" text-anchor="middle" size="13"></text><text id="ProcessOnText1025" fill="#000000" font-size="13" x="79.0" y="62.075" font-family="微软雅黑" font-weight="normal" font-style="normal" text-decoration="none" family="微软雅黑" text-anchor="middle" size="13">缓存区 A</text></g></g><g id="ProcessOnG1026" transform="matrix(1.0,0.0,0.0,1.0,562.0,254.0)" opacity="1.0"><path id="ProcessOnPath1027" d="M0.0 0.0L110.0 0.0L110.0 196.0L0.0 196.0Z" stroke="#323232" stroke-width="2.0" stroke-dasharray="none" opacity="1.0" fill="#ffffff"/></g><g id="ProcessOnG1028" transform="matrix(1.0,0.0,0.0,1.0,567.5,263.0)" opacity="1.0"><path id="ProcessOnPath1029" d="M0.0 4.0Q0.0 0.0 4.0 0.0L95.0 0.0Q99.0 0.0 99.0 4.0L99.0 39.0Q99.0 43.0 95.0 43.0L4.0 43.0Q0.0 43.0 0.0 39.0Z" stroke="#323232" stroke-width="2.0" stroke-dasharray="none" opacity="1.0" fill="#ffffff"/><g id="ProcessOnG1030" transform="matrix(1.0,0.0,0.0,1.0,10.0,13.375)"><text id="ProcessOnText1031" fill="#000000" font-size="13" x="38.5" y="13.325" font-family="微软雅黑" font-weight="normal" font-style="normal" text-decoration="none" family="微软雅黑" text-anchor="middle" size="13">FixedBuffer</text></g></g><g id="ProcessOnG1032" transform="matrix(1.0,0.0,0.0,1.0,567.5,312.0)" opacity="1.0"><path id="ProcessOnPath1033" d="M0.0 4.0Q0.0 0.0 4.0 0.0L95.0 0.0Q99.0 0.0 99.0 4.0L99.0 39.0Q99.0 43.0 95.0 43.0L4.0 43.0Q0.0 43.0 0.0 39.0Z" stroke="#323232" stroke-width="2.0" stroke-dasharray="none" opacity="1.0" fill="#ffffff"/><g id="ProcessOnG1034" transform="matrix(1.0,0.0,0.0,1.0,10.0,13.375)"><text id="ProcessOnText1035" fill="#000000" font-size="13" x="38.5" y="13.325" font-family="微软雅黑" font-weight="normal" font-style="normal" text-decoration="none" family="微软雅黑" text-anchor="middle" size="13">FixedBuffer</text></g></g><g id="ProcessOnG1036" transform="matrix(1.0,0.0,0.0,1.0,537.0,375.0)" opacity="1.0"><path id="ProcessOnPath1037" d="M0.0 0.0L160.0 0.0L160.0 40.0L0.0 40.0Z" stroke="none" stroke-width="0.0" stroke-dasharray="none" opacity="1.0" fill="none"/><g id="ProcessOnG1038" transform="matrix(1.0,0.0,0.0,1.0,0.0,-12.5)"><text id="ProcessOnText1039" fill="#000000" font-size="13" x="79.0" y="13.325" font-family="微软雅黑" font-weight="normal" font-style="normal" text-decoration="none" family="微软雅黑" text-anchor="middle" size="13">……</text><text id="ProcessOnText1040" fill="#000000" font-size="13" x="79.0" y="29.575" font-family="微软雅黑" font-weight="normal" font-style="normal" text-decoration="none" family="微软雅黑" text-anchor="middle" size="13"></text><text id="ProcessOnText1041" fill="#000000" font-size="13" x="79.0" y="45.825" font-family="微软雅黑" font-weight="normal" font-style="normal" text-decoration="none" family="微软雅黑" text-anchor="middle" size="13"></text><text id="ProcessOnText1042" fill="#000000" font-size="13" x="79.0" y="62.075" font-family="微软雅黑" font-weight="normal" font-style="normal" text-decoration="none" family="微软雅黑" text-anchor="middle" size="13">缓存区 B</text></g></g><g id="ProcessOnG1043" transform="matrix(1.0,0.0,0.0,1.0,46.0,162.0)" opacity="1.0"><path id="ProcessOnPath1044" d="M0.0 0.0L98.0 0.0L98.0 387.0L0.0 387.0Z" stroke="#323232" stroke-width="2.0" stroke-dasharray="none" opacity="1.0" fill="#ffffff"/><g id="ProcessOnG1045" transform="matrix(1.0,0.0,0.0,1.0,10.0,96.0)"><text id="ProcessOnText1046" fill="#000000" font-size="13" x="38.0" y="13.325" font-family="微软雅黑" font-weight="normal" font-style="normal" text-decoration="none" family="微软雅黑" text-anchor="middle" size="13">线程 1</text><text id="ProcessOnText1047" fill="#000000" font-size="13" x="38.0" y="29.575" font-family="微软雅黑" font-weight="normal" font-style="normal" text-decoration="none" family="微软雅黑" text-anchor="middle" size="13"></text><text id="ProcessOnText1048" fill="#000000" font-size="13" x="38.0" y="45.825" font-family="微软雅黑" font-weight="normal" font-style="normal" text-decoration="none" family="微软雅黑" text-anchor="middle" size="13">线程 2</text><text id="ProcessOnText1049" fill="#000000" font-size="13" x="38.0" y="62.075" font-family="微软雅黑" font-weight="normal" font-style="normal" text-decoration="none" family="微软雅黑" text-anchor="middle" size="13"></text><text id="ProcessOnText1050" fill="#000000" font-size="13" x="38.0" y="78.325" font-family="微软雅黑" font-weight="normal" font-style="normal" text-decoration="none" family="微软雅黑" text-anchor="middle" size="13">线程 3</text><text id="ProcessOnText1051" fill="#000000" font-size="13" x="38.0" y="94.575" font-family="微软雅黑" font-weight="normal" font-style="normal" text-decoration="none" family="微软雅黑" text-anchor="middle" size="13"></text><text id="ProcessOnText1052" fill="#000000" font-size="13" x="38.0" y="110.825" font-family="微软雅黑" font-weight="normal" font-style="normal" text-decoration="none" family="微软雅黑" text-anchor="middle" size="13">线程 4</text><text id="ProcessOnText1053" fill="#000000" font-size="13" x="38.0" y="127.075" font-family="微软雅黑" font-weight="normal" font-style="normal" text-decoration="none" family="微软雅黑" text-anchor="middle" size="13"></text><text id="ProcessOnText1054" fill="#000000" font-size="13" x="38.0" y="143.325" font-family="微软雅黑" font-weight="normal" font-style="normal" text-decoration="none" family="微软雅黑" text-anchor="middle" size="13">线程 5 </text><text id="ProcessOnText1055" fill="#000000" font-size="13" x="38.0" y="159.575" font-family="微软雅黑" font-weight="normal" font-style="normal" text-decoration="none" family="微软雅黑" text-anchor="middle" size="13">.......</text><text id="ProcessOnText1056" fill="#000000" font-size="13" x="38.0" y="175.825" font-family="微软雅黑" font-weight="normal" font-style="normal" text-decoration="none" family="微软雅黑" text-anchor="middle" size="13"></text><text id="ProcessOnText1057" fill="#000000" font-size="13" x="38.0" y="192.075" font-family="微软雅黑" font-weight="normal" font-style="normal" text-decoration="none" family="微软雅黑" text-anchor="middle" size="13"></text></g></g><g id="ProcessOnG1058" transform="matrix(1.0,0.0,0.0,1.0,946.0,312.0)" opacity="1.0"><path id="ProcessOnPath1059" d="M0.0 0.0L100.0 0.0L100.0 70.0L0.0 70.0Z" stroke="#323232" stroke-width="2.0" stroke-dasharray="none" opacity="1.0" fill="#ffffff"/><g id="ProcessOnG1060" transform="matrix(1.0,0.0,0.0,1.0,10.0,26.875)"><text id="ProcessOnText1061" fill="#000000" font-size="13" x="39.0" y="13.325" font-family="微软雅黑" font-weight="normal" font-style="normal" text-decoration="none" family="微软雅黑" text-anchor="middle" size="13">磁盘文件</text></g></g><g id="ProcessOnG1062"><path id="ProcessOnPath1063" d="M144.0 265.0L252.7639320225002 265.0" stroke="#323232" stroke-width="2.0" stroke-dasharray="none" fill="none" marker-end="url(#ProcessOnMarker1064)"/></g><g id="ProcessOnG1066"><path id="ProcessOnPath1067" d="M144.0 301.0L252.7644274479959 300.12286752058066" stroke="#323232" stroke-width="2.0" stroke-dasharray="none" fill="none" marker-end="url(#ProcessOnMarker1068)"/></g><g id="ProcessOnG1070"><path id="ProcessOnPath1071" d="M144.0 363.0L252.7639320225002 363.0" stroke="#323232" stroke-width="2.0" stroke-dasharray="none" fill="none" marker-end="url(#ProcessOnMarker1072)"/></g><g id="ProcessOnG1074"><path id="ProcessOnPath1075" d="M144.0 389.0L252.76591343456107 387.24571107363613" stroke="#323232" stroke-width="2.0" stroke-dasharray="none" fill="none" marker-end="url(#ProcessOnMarker1076)"/></g><g id="ProcessOnG1078"><path id="ProcessOnPath1079" d="M144.0 334.0L252.7639320225002 334.0" stroke="#323232" stroke-width="2.0" stroke-dasharray="none" fill="none" marker-end="url(#ProcessOnMarker1080)"/></g><g id="ProcessOnG1082" transform="matrix(1.0,0.0,0.0,1.0,384.0,310.0)" opacity="1.0"><path id="ProcessOnPath1083" d="M0.0 30.0L30.0 0.0L30.0 19.8L141.0 19.8L141.0 0.0L171.0 30.0L141.0 60.0L141.0 40.2L30.0 40.2L30.0 60.0L0.0 30.0Z" stroke="#323232" stroke-width="2.0" stroke-dasharray="none" opacity="1.0" fill="#ffffff"/></g><g id="ProcessOnG1084" transform="matrix(1.0,0.0,0.0,1.0,391.0,278.0)" opacity="1.0"><path id="ProcessOnPath1085" d="M0.0 0.0L171.0 0.0L171.0 42.0L0.0 42.0Z" stroke="none" stroke-width="0.0" stroke-dasharray="none" opacity="1.0" fill="none"/><g id="ProcessOnG1086" transform="matrix(1.0,0.0,0.0,1.0,0.0,-3.375)"><text id="ProcessOnText1087" fill="#000000" font-size="13" x="84.5" y="13.325" font-family="微软雅黑" font-weight="normal" font-style="normal" text-decoration="none" family="微软雅黑" text-anchor="middle" size="13">日志线程循环定时交换</text><text id="ProcessOnText1088" fill="#000000" font-size="13" x="84.5" y="29.575" font-family="微软雅黑" font-weight="normal" font-style="normal" text-decoration="none" family="微软雅黑" text-anchor="middle" size="13">使用 vector::swap()</text><text id="ProcessOnText1089" fill="#000000" font-size="13" x="84.5" y="45.825" font-family="微软雅黑" font-weight="normal" font-style="normal" text-decoration="none" family="微软雅黑" text-anchor="middle" size="13"> 避免内存拷贝</text></g></g><g id="ProcessOnG1090" transform="matrix(1.0,0.0,0.0,1.0,677.0,317.0)" opacity="1.0"><path id="ProcessOnPath1091" d="M0.0 19.8L60.0 19.8L60.0 0.0L90.0 30.0L60.0 60.0L60.0 40.2L0.0 40.2L0.0 19.8Z" stroke="#323232" stroke-width="2.0" stroke-dasharray="none" opacity="1.0" fill="#ffffff"/></g><g id="ProcessOnG1092" transform="matrix(1.0,0.0,0.0,1.0,772.0,312.5)" opacity="1.0"><path id="ProcessOnPath1093" d="M0.0 0.0L83.0 0.0L83.0 69.0L0.0 69.0Z" stroke="#323232" stroke-width="2.0" stroke-dasharray="none" opacity="1.0" fill="#ffffff"/><g id="ProcessOnG1094" transform="matrix(1.0,0.0,0.0,1.0,10.0,18.25)"><text id="ProcessOnText1095" fill="#000000" font-size="13" x="30.5" y="13.325" font-family="微软雅黑" font-weight="normal" font-style="normal" text-decoration="none" family="微软雅黑" text-anchor="middle" size="13">自定义 I/</text><text id="ProcessOnText1096" fill="#000000" font-size="13" x="30.5" y="29.575" font-family="微软雅黑" font-weight="normal" font-style="normal" text-decoration="none" family="微软雅黑" text-anchor="middle" size="13">O 缓冲区</text></g></g><g id="ProcessOnG1097" transform="matrix(1.0,0.0,0.0,1.0,858.0,317.0)" opacity="1.0"><path id="ProcessOnPath1098" d="M0.0 19.8L54.0 19.8L54.0 0.0L84.0 30.0L54.0 60.0L54.0 40.2L0.0 40.2L0.0 19.8Z" stroke="#323232" stroke-width="2.0" stroke-dasharray="none" opacity="1.0" fill="#ffffff"/></g><g id="ProcessOnG1099" transform="matrix(1.0,0.0,0.0,1.0,132.0,217.0)" opacity="1.0"><path id="ProcessOnPath1100" d="M0.0 0.0L160.0 0.0L160.0 40.0L0.0 40.0Z" stroke="none" stroke-width="0.0" stroke-dasharray="none" opacity="1.0" fill="none"/><g id="ProcessOnG1101" transform="matrix(1.0,0.0,0.0,1.0,0.0,-4.375)"><text id="ProcessOnText1102" fill="#000000" font-size="13" x="79.0" y="13.325" font-family="微软雅黑" font-weight="normal" font-style="normal" text-decoration="none" family="微软雅黑" text-anchor="middle" size="13">经过 LogStream 包装</text><text id="ProcessOnText1103" fill="#000000" font-size="13" x="79.0" y="29.575" font-family="微软雅黑" font-weight="normal" font-style="normal" text-decoration="none" family="微软雅黑" text-anchor="middle" size="13">包含写入代码位置信息</text><text id="ProcessOnText1104" fill="#000000" font-size="13" x="79.0" y="45.825" font-family="微软雅黑" font-weight="normal" font-style="normal" text-decoration="none" family="微软雅黑" text-anchor="middle" size="13">和时间戳 </text></g></g><g id="ProcessOnG1105" transform="matrix(1.0,0.0,0.0,1.0,182.0,139.0)" opacity="1.0"><path id="ProcessOnPath1106" d="M0.0 0.0L160.0 0.0L160.0 40.0L0.0 40.0Z" stroke="none" stroke-width="0.0" stroke-dasharray="none" opacity="1.0" fill="none"/><g id="ProcessOnG1107" transform="matrix(1.0,0.0,0.0,1.0,0.0,-12.5)"><text id="ProcessOnText1108" fill="#ff6666" font-size="13" x="79.0" y="13.325" font-family="微软雅黑" font-weight="normal" font-style="normal" text-decoration="none" family="微软雅黑" text-anchor="middle" size="13">收集各线程产生的 log 信息</text><text id="ProcessOnText1109" fill="#ff6666" font-size="13" x="79.0" y="29.575" font-family="微软雅黑" font-weight="normal" font-style="normal" text-decoration="none" family="微软雅黑" text-anchor="middle" size="13">其余任务均由日志线程完成</text><text id="ProcessOnText1110" fill="#ff6666" font-size="13" x="79.0" y="45.825" font-family="微软雅黑" font-weight="normal" font-style="normal" text-decoration="none" family="微软雅黑" text-anchor="middle" size="13">不阻塞原线程</text><text id="ProcessOnText1111" fill="#ff6666" font-size="13" x="79.0" y="62.075" font-family="微软雅黑" font-weight="normal" font-style="normal" text-decoration="none" family="微软雅黑" text-anchor="middle" size="13">开销在锁</text></g></g><g id="ProcessOnG1112" transform="matrix(1.0,0.0,0.0,1.0,567.5,129.0)" opacity="1.0"><path id="ProcessOnPath1113" d="M0.0 0.0L199.5 0.0L199.5 47.0L0.0 47.0Z" stroke="none" stroke-width="0.0" stroke-dasharray="none" opacity="1.0" fill="none"/><g id="ProcessOnG1114" transform="matrix(1.0,0.0,0.0,1.0,0.0,7.25)"><text id="ProcessOnText1115" fill="#ff6666" font-size="13" x="98.75" y="13.325" font-family="微软雅黑" font-weight="normal" font-style="normal" text-decoration="none" family="微软雅黑" text-anchor="middle" size="13">单例日志线程定时处理</text><text id="ProcessOnText1116" fill="#ff6666" font-size="13" x="98.75" y="29.575" font-family="微软雅黑" font-weight="normal" font-style="normal" text-decoration="none" family="微软雅黑" text-anchor="middle" size="13">通过双缓冲区避免零散的文件I/O</text></g></g><g id="ProcessOnG1117" transform="matrix(1.0,0.0,0.0,1.0,820.0,270.0)" opacity="1.0"><path id="ProcessOnPath1118" d="M0.0 0.0L160.0 0.0L160.0 40.0L0.0 40.0Z" stroke="none" stroke-width="0.0" stroke-dasharray="none" opacity="1.0" fill="none"/><g id="ProcessOnG1119" transform="matrix(1.0,0.0,0.0,1.0,0.0,3.75)"><text id="ProcessOnText1120" fill="#000000" font-size="13" x="79.0" y="13.325" font-family="微软雅黑" font-weight="normal" font-style="normal" text-decoration="none" family="微软雅黑" text-anchor="middle" size="13">收集一定数量的 log</text><text id="ProcessOnText1121" fill="#000000" font-size="13" x="79.0" y="29.575" font-family="微软雅黑" font-weight="normal" font-style="normal" text-decoration="none" family="微软雅黑" text-anchor="middle" size="13">就flush 至磁盘文件</text></g></g><g id="ProcessOnG1122" transform="matrix(1.0,0.0,0.0,1.0,115.0,380.0)" opacity="1.0"><path id="ProcessOnPath1123" d="M0.0 0.0L160.0 0.0L160.0 40.0L0.0 40.0Z" stroke="none" stroke-width="0.0" stroke-dasharray="none" opacity="1.0" fill="none"/><g id="ProcessOnG1124" transform="matrix(1.0,0.0,0.0,1.0,0.0,11.875)"><text id="ProcessOnText1125" fill="#ff6666" font-size="13" x="79.0" y="13.325" font-family="微软雅黑" font-weight="normal" font-style="normal" text-decoration="none" family="微软雅黑" text-anchor="middle" size="13">有锁写入</text></g></g><g id="ProcessOnG1126" transform="matrix(1.0,0.0,0.0,1.0,389.5,345.0)" opacity="1.0"><path id="ProcessOnPath1127" d="M0.0 0.0L160.0 0.0L160.0 40.0L0.0 40.0Z" stroke="none" stroke-width="0.0" stroke-dasharray="none" opacity="1.0" fill="none"/><g id="ProcessOnG1128" transform="matrix(1.0,0.0,0.0,1.0,0.0,11.875)"><text id="ProcessOnText1129" fill="#ff6666" font-size="13" x="79.0" y="13.325" font-family="微软雅黑" font-weight="normal" font-style="normal" text-decoration="none" family="微软雅黑" text-anchor="middle" size="13">持锁交换</text></g></g></g></g></svg>